HIERARCHY
ROOT Hips
{
	OFFSET 0.00000 0.00000 0.00000
	CHANNELS 6 Xposition Yposition Zposition Zrotation Yrotation Xrotation 
	JOINT LHipJoint
	{
		OFFSET 0 0 0
		CHANNELS 3 Zrotation Yrotation Xrotation
		JOINT LeftUpLeg
		{
			OFFSET 3.13874 -1.57224 1.49786
			CHANNELS 3 Zrotation Yrotation Xrotation
			JOINT LeftLeg
			{
				OFFSET 2.10955 -5.79594 0.00000
				CHANNELS 3 Zrotation Yrotation Xrotation
				JOINT LeftFoot
				{
					OFFSET 2.41843 -6.64458 0.00000
					CHANNELS 3 Zrotation Yrotation Xrotation
					JOINT LeftToeBase
					{
						OFFSET 0.04713 -0.12948 1.66229
						CHANNELS 3 Zrotation Yrotation Xrotation
						End Site
						{
							OFFSET 0.00000 -0.00000 0.85167
						}
					}
				}
			}
		}
	}
	JOINT RHipJoint
	{
		OFFSET 0 0 0
		CHANNELS 3 Zrotation Yrotation Xrotation
		JOINT RightUpLeg
		{
			OFFSET -3.13988 -1.57224 1.49786
			CHANNELS 3 Zrotation Yrotation Xrotation
			JOINT RightLeg
			{
				OFFSET -2.15006 -5.90725 0.00000
				CHANNELS 3 Zrotation Yrotation Xrotation
				JOINT RightFoot
				{
					OFFSET -2.34496 -6.44273 0.00000
					CHANNELS 3 Zrotation Yrotation Xrotation
					JOINT RightToeBase
					{
						OFFSET -0.08699 -0.23900 1.55223
						CHANNELS 3 Zrotation Yrotation Xrotation
						End Site
						{
							OFFSET -0.00000 -0.00000 0.80281
						}
					}
				}
			}
		}
	}
	JOINT LowerBack
	{
		OFFSET 0 0 0
		CHANNELS 3 Zrotation Yrotation Xrotation
		JOINT Spine
		{
			OFFSET 0.01292 1.96517 -0.16495
			CHANNELS 3 Zrotation Yrotation Xrotation
			JOINT Spine1
			{
				OFFSET 0.02122 1.88666 0.19706
				CHANNELS 3 Zrotation Yrotation Xrotation
				JOINT Neck
				{
					OFFSET 0 0 0
					CHANNELS 3 Zrotation Yrotation Xrotation
					JOINT Neck1
					{
						OFFSET -0.01683 1.81591 0.07903
						CHANNELS 3 Zrotation Yrotation Xrotation
						JOINT Head
						{
							OFFSET 0.00815 1.74013 -0.47700
							CHANNELS 3 Zrotation Yrotation Xrotation
							End Site
							{
								OFFSET -0.00204 1.83225 -0.16933
							}
						}
					}
				}
				JOINT LeftShoulder
				{
					OFFSET 0 0 0
					CHANNELS 3 Zrotation Yrotation Xrotation
					JOINT LeftArm
					{
						OFFSET 3.38482 1.41533 0.19802
						CHANNELS 3 Zrotation Yrotation Xrotation
						JOINT LeftForeArm
						{
							OFFSET 4.32712 -0.00000 0.00000
							CHANNELS 3 Zrotation Yrotation Xrotation
							JOINT LeftHand
							{
								OFFSET 3.28587 -0.00000 -0.00000
								CHANNELS 3 Zrotation Yrotation Xrotation
								JOINT LeftFingerBase
								{
									OFFSET 0 0 0
									CHANNELS 3 Zrotation Yrotation Xrotation
									JOINT LeftHandIndex1
									{
										OFFSET 0.43316 -0.00000 -0.00000
										CHANNELS 3 Zrotation Yrotation Xrotation
										End Site
										{
											OFFSET 0.34922 -0.00000 -0.00000
										}
									}
								}
								JOINT LThumb
								{
									OFFSET 0 0 0
									CHANNELS 3 Zrotation Yrotation Xrotation
									End Site
									{
										OFFSET 0.35456 -0.00000 0.35456
									}
								}
							}
						}
					}
				}
				JOINT RightShoulder
				{
					OFFSET 0 0 0
					CHANNELS 3 Zrotation Yrotation Xrotation
					JOINT RightArm
					{
						OFFSET -3.09725 1.62858 -0.14144
						CHANNELS 3 Zrotation Yrotation Xrotation
						JOINT RightForeArm
						{
							OFFSET -4.29104 -0.00000 0.00000
							CHANNELS 3 Zrotation Yrotation Xrotation
							JOINT RightHand
							{
								OFFSET -3.22720 -0.00000 -0.00000
								CHANNELS 3 Zrotation Yrotation Xrotation
								JOINT RightFingerBase
								{
									OFFSET 0 0 0
									CHANNELS 3 Zrotation Yrotation Xrotation
									JOINT RightHandIndex1
									{
										OFFSET -0.54362 -0.00000 -0.00000
										CHANNELS 3 Zrotation Yrotation Xrotation
										End Site
										{
											OFFSET -0.43828 -0.00000 -0.00000
										}
									}
								}
								JOINT RThumb
								{
									OFFSET 0 0 0
									CHANNELS 3 Zrotation Yrotation Xrotation
									End Site
									{
										OFFSET -0.44497 -0.00000 0.44497
									}
								}
							}
						}
					}
				}
			}
		}
	}
}
MOTION
Frames: 11
Frame Time: 0.04
0.00 0.00 0.00 0 0 0 0 0 0 -21 0 0 0 0 0 0 0 0 0 0 0 0 0 0 21 0 0 0 0 0 0 0 0 0 0 0 0 0 0 0 0 0 0 0 0 0 0 -16 0 0 21 0 0 11 0 0 0 -8 0 0 0 0 0 0 0 0 0 0 0 0 0 0 0 0 0 0 0 0 8 0 0 0 0 0 0 0 0 0 0 0 0 0 0 0 0 0
0.00 0.00 0.00 175.4010 -39.8945 -167.9680 0.0000 0.0000 0.0000 -31.5792 -19.1206 6.2526 0.0199 0.9097 2.5003 3.0680 -15.5242 -31.9007 0.7125 -5.3944 -15.0370 0.0000 0.0000 0.0000 12.9731 13.5761 -12.3077 -1.2526 -7.0955 19.9987 -1.0296 11.0718 -18.5767 -0.3504 -3.8035 10.5245 0.7039 5.6132 9.4381 -3.0472 7.0087 -9.5779 -5.3387 2.7853 -15.5103 -9.3794 -6.6695 -16.4973 1.7783 -8.0988 27.2527 0.9215 -4.6388 12.2049 0.0000 -0.0000 0.0000 -81.6360 29.9528 -20.2001 26.8396 -38.0258 -9.4002 -0.0000 0.0000 -20.9009 37.6313 26.1982 18.7969 -7.1250 0.0000 -0.0000 9.5725 61.5797 3.8827 0.0000 -0.0000 0.0000 67.7763 -17.6077 45.6535 -33.2332 43.5085 -13.5823 0.0000 -0.0000 -4.3636 -33.9113 -15.3261 10.0755 7.1250 -0.0000 -0.0000 -6.1302 -48.1588 0.4794
0.00 0.00 0.00 176.0510 -44.9294 -169.0770 0.0000 0.0000 0.0000 -27.3081 -14.2195 -1.6277 0.4474 4.2913 11.8977 0.3301 -20.8053 -17.1536 0.2418 -3.1646 -8.7373 0.0000 0.0000 0.0000 15.7091 12.4925 -10.1083 -1.4058 -7.4999 21.2050 -1.2860 10.5331 -20.4929 -1.1817 -6.8989 19.4163 -1.8962 4.1495 9.6810 -0.7635 4.9428 -9.0494 -0.9027 2.3144 -15.6654 -8.3408 -4.9605 -16.7915 -0.5579 -5.1511 26.5599 0.3661 -3.4898 11.7054 0.0000 0.0000 0.0000 -81.3716 27.0370 -20.0750 35.3012 -45.0260 -15.0260 -0.0000 0.0000 -23.1252 41.1148 27.8786 22.2017 -7.1250 0.0000 -0.0000 14.3310 64.5090 6.8354 0.0000 0.0000 0.0000 61.3729 -25.6637 37.1137 -39.6171 47.8414 -18.1549 0.0000 -0.0000 -16.7918 -38.1283 -15.9847 12.1966 7.1250 -0.0000 -0.0000 -10.4015 -49.7034 1.2179
0.00 0.00 0.00 210.9560 -74.8469 -201.5040 0.0000 0.0000 0.0000 -9.7482 -12.7847 -24.9345 3.2579 11.1012 32.6220 -0.6958 -17.4116 -3.7715 0.3141 -3.6029 -9.9622 0.0000 0.0000 0.0000 30.3227 12.3808 -4.0681 -2.0063 -8.8793 25.4184 0.1091 12.9606 -7.6144 -0.0388 1.2711 -3.4951 -3.6578 -5.6360 13.4760 8.0551 -7.8999 -10.0440 13.9124 -2.5805 -17.5602 -3.5888 -1.5462 -10.7627 -3.2313 -1.4204 24.3347 -0.7190 -1.6567 9.4545 0.0000 -0.0000 0.0000 -80.2881 -5.3511 2.1535 52.0263 -53.7807 -27.8007 -0.0000 0.0000 -10.6588 46.8102 27.2431 25.9961 -7.1250 0.0000 -0.0000 23.2201 65.5169 11.7945 0.0000 -0.0000 0.0000 50.2631 -45.5166 20.2461 -28.2752 39.3684 -10.2978 0.0000 -0.0000 -35.9950 -39.4361 -15.6535 12.5122 7.1250 -0.0000 -0.0000 -11.7410 -49.5569 1.3356
0.00 0.00 0.00 194.0650 -55.2614 -179.5870 0.0000 0.0000 0.0000 -4.5569 -26.4297 -30.3884 7.3613 15.6287 50.2277 -0.8617 -23.4494 -9.6221 0.3039 -3.5444 -9.7982 0.0000 0.0000 0.0000 24.4705 16.4342 -21.6050 -4.5325 -12.8372 38.7621 0.0250 11.5187 -7.7122 -1.3492 7.3535 -20.7669 0.6222 0.4589 12.9211 3.9665 0.9940 -9.8090 4.0658 0.5933 -18.7850 6.2390 3.7399 -11.7861 -5.7280 4.7061 23.5575 -2.5281 1.8796 9.6746 -0.0000 0.0000 0.0000 -75.7526 -11.4491 0.7227 61.1033 -56.5968 -35.2606 -0.0000 0.0000 -4.8536 57.4716 29.8868 38.0006 -7.1250 0.0000 -0.0000 48.9033 71.5807 33.2143 -0.0000 0.0000 0.0000 43.8437 -12.4021 26.3097 -38.3126 47.0378 -17.1940 0.0000 -0.0000 -33.7804 -43.4417 -15.5468 14.2426 7.1250 -0.0000 -0.0000 -15.9661 -50.2561 2.1156
0.00 0.00 0.00 180.2170 -35.9461 -167.9810 0.0000 0.0000 0.0000 -16.1198 -31.8054 -22.0701 8.1220 16.2082 53.0009 -1.9513 -26.6597 -2.8895 0.8122 -5.7509 -16.0634 0.0000 0.0000 0.0000 16.9788 10.0150 -31.0940 -5.4554 -13.8790 42.7550 -1.8238 1.2087 -25.2025 -0.5332 4.6792 -12.9958 1.5590 6.2803 14.3627 -4.1004 7.9792 -10.1303 -8.0465 2.7596 -19.0841 7.2609 4.6925 -11.9936 -3.6876 5.3558 22.7640 -1.8899 2.5242 9.4621 -0.0000 -0.0000 0.0000 -66.0750 5.6556 -18.3428 68.1350 -58.1142 -41.1843 -0.0000 0.0000 -9.8599 58.4854 30.0710 39.2560 -7.1250 0.0000 -0.0000 52.1811 71.9715 36.1720 -0.0000 -0.0000 0.0000 50.7043 7.7615 29.4430 -41.9512 49.1843 -19.9036 0.0000 -0.0000 -27.1969 -40.8184 -12.1044 10.2661 7.1250 -0.0000 -0.0000 -12.7970 -45.4053 0.1302
0.00 0.00 0.00 174.6460 -22.8796 -165.5390 0.0000 0.0000 0.0000 -27.0078 -23.6280 -17.0852 6.6741 15.0512 47.6305 -1.6380 -34.2961 -15.9102 0.4762 -4.4256 -12.2772 0.0000 0.0000 0.0000 11.2942 9.5189 -35.4222 -5.2126 -13.6193 41.7334 -2.5344 -3.2414 -31.3703 -1.0005 6.3652 -17.8479 1.1877 10.2896 17.7356 -8.8073 12.3667 -10.3595 -14.8629 4.1953 -19.4685 5.3225 4.6340 -12.1249 -1.7960 5.3131 21.1086 -0.9214 2.5792 8.7935 0.0000 -0.0000 0.0000 -60.8479 17.7050 -32.9327 60.1174 -56.3411 -34.4388 -0.0000 0.0000 -12.6257 58.6387 28.5071 38.0638 -7.1250 0.0000 -0.0000 49.9115 70.4129 32.8334 0.0000 -0.0000 0.0000 52.3904 21.6699 30.2272 -44.6849 50.6132 -21.9949 0.0000 -0.0000 -23.6495 -41.6708 -10.5186 9.2289 7.1250 -0.0000 -0.0000 -13.4106 -43.5266 -0.4971
0.00 0.00 0.00 191.2760 -47.9433 -175.5530 0.0000 0.0000 0.0000 -6.9444 -24.8876 -36.8953 11.5478 18.1929 64.5481 2.2657 -24.9812 -30.1900 4.5580 -12.8681 -38.8767 0.0000 0.0000 0.0000 21.6740 17.3140 -33.7420 -9.0723 -16.8540 56.3397 -1.5374 3.0166 -22.6611 -2.6422 10.0919 -29.2749 1.8162 2.7257 16.8002 0.5860 4.1464 -8.6566 -1.6805 1.5546 -19.6697 9.6265 5.2600 -12.6787 -3.8280 5.6669 21.3710 -2.2617 2.8816 9.2165 0.0000 0.0000 0.0000 -59.8135 -4.0352 -22.4522 71.5997 -58.6812 -44.1354 -0.0000 0.0000 -5.1927 59.4633 29.4309 39.7932 -7.1250 0.0000 -0.0000 53.9290 71.5158 37.0997 0.0000 0.0000 0.0000 48.9776 -7.0155 12.2294 -60.9158 56.5491 -35.1041 0.0000 -0.0000 -24.8245 -42.9969 -11.1826 10.2500 7.1250 -0.0000 -0.0000 -14.7771 -44.5846 -0.1550
0.00 0.00 0.00 225.5110 -68.7736 -203.8750 0.0000 0.0000 0.0000 12.2104 -28.7903 -61.4821 14.0239 19.1213 72.2775 0.5286 -26.8634 -22.0847 1.8656 -8.5803 -24.4910 0.0000 0.0000 0.0000 34.6186 11.9428 -32.6045 -8.1355 -16.2180 53.0493 -3.6024 -3.0093 -37.0529 -2.1295 9.1307 -26.2049 1.2154 -4.1509 20.1102 7.6598 -4.3104 -8.6694 9.8713 -1.3887 -20.9099 11.6671 5.4228 -12.9969 -4.8125 5.6636 20.0023 -2.9161 2.9459 8.9039 0.0000 -0.0000 0.0000 -68.3540 -36.8064 10.3624 55.5588 -55.0054 -30.6733 -0.0000 -0.0000 5.4854 57.8913 28.8031 37.5170 -7.1250 0.0000 -0.0000 48.3290 70.5504 31.7722 0.0000 -0.0000 0.0000 54.2812 -36.6467 -6.6185 -48.5689 52.4017 -25.0357 0.0000 -0.0000 -32.9970 -44.9834 -12.9467 12.6212 7.1250 -0.0000 -0.0000 -17.0823 -47.2345 0.9690
0.00 0.00 0.00 178.9550 -36.2901 -162.7400 0.0000 0.0000 0.0000 -10.2304 -36.8912 -41.0719 14.5380 19.2692 73.8411 -0.8745 -32.3631 -18.3355 2.1361 -9.1440 -26.2468 0.0000 0.0000 0.0000 17.7864 12.9451 -49.3048 -9.8488 -17.3239 58.9817 -3.9357 -8.9419 -41.2320 -0.0099 0.6430 -1.7670 -3.3722 6.6844 22.1532 -9.1673 5.6145 -8.6259 -11.0438 1.5827 -22.0429 9.6383 5.7472 -14.4923 -1.2059 5.6690 18.4762 -1.3248 3.1495 8.4869 -0.0000 0.0000 0.0000 -55.1833 -1.4613 -21.7329 67.7096 -58.0367 -40.8232 -0.0000 0.0000 -5.9402 61.9419 30.3279 43.4513 -7.1250 0.0000 -0.0000 63.7958 72.6612 46.6143 -0.0000 0.0000 0.0000 49.7460 8.5178 3.3712 -52.9021 54.1010 -28.5088 0.0000 -0.0000 -24.1738 -45.5062 -10.8145 10.8119 7.1250 -0.0000 -0.0000 -17.1358 -44.5205 -0.2092
0.00 0.00 0.00 214.1820 -56.5477 -194.6080 0.0000 0.0000 0.0000 16.7781 -19.0130 -37.8518 5.9840 14.4128 44.9175 -0.3139 -18.1293 -9.6406 1.3470 -7.3476 -20.7495 0.0000 0.0000 0.0000 42.2450 4.5043 -23.2752 -3.3415 -11.2283 33.0538 -1.0864 0.9201 -19.4193 -3.2986 11.1634 -32.8330 -3.4027 0.0330 16.1401 4.4328 -0.2388 -7.3212 7.2399 0.6124 -17.6623 14.1782 6.0542 -11.8964 -2.6277 5.3387 23.4204 -2.6484 3.2094 9.9459 0.0000 -0.0000 0.0000 -49.5717 -21.6499 -19.1913 79.3492 -59.5670 -50.7896 -0.0000 0.0000 -7.2512 62.1212 32.0779 45.1120 -7.1250 0.0000 -0.0000 68.8395 74.1218 52.7780 0.0000 -0.0000 0.0000 48.2854 -24.4071 -14.5954 -64.5558 57.4065 -38.1565 0.0000 -0.0000 -27.6090 -45.6652 -9.5534 9.6405 7.1250 -0.0000 -0.0000 -17.0039 -42.8612 -0.9264
